<?xml version="1.0" encoding="UTF-8" standalone="no"?>
<!DOCTYPE svg PUBLIC "-//W3C//DTD SVG 1.1//EN"
 "http://www.w3.org/Graphics/SVG/1.1/DTD/svg11.dtd">
<!-- Generated by graphviz version 2.47.0 (20210316.0004)
 -->
<!-- Title: dependencies Pages: 1 -->
<svg width="2338pt" height="284pt"
 viewBox="0.00 0.00 2338.00 284.00" xmlns="http://www.w3.org/2000/svg" xmlns:xlink="http://www.w3.org/1999/xlink">
<g id="graph0" class="graph" transform="scale(1 1) rotate(0) translate(4 280)">
<title>dependencies</title>
<polygon fill="white" stroke="transparent" points="-4,4 -4,-280 2334,-280 2334,4 -4,4"/>
<text text-anchor="start" x="1144.01" y="-42.4" font-family="sans-serif" font-weight="bold" font-size="14.00">Legend</text>
<polygon fill="#ffffb3" stroke="transparent" points="931,-10 931,-30 951,-30 951,-10 931,-10"/>
<text text-anchor="start" x="954.63" y="-15.4" font-family="sans-serif" font-size="14.00"> &#160;Declarations</text>
<polygon fill="#8dd3c7" stroke="transparent" points="1044,-10 1044,-30 1064,-30 1064,-10 1044,-10"/>
<text text-anchor="start" x="1067.73" y="-15.4" font-family="sans-serif" font-size="14.00"> &#160;Module</text>
<polygon fill="#80b1d3" stroke="transparent" points="1130,-10 1130,-30 1150,-30 1150,-10 1130,-10"/>
<text text-anchor="start" x="1153.78" y="-15.4" font-family="sans-serif" font-size="14.00"> &#160;Bootstrap</text>
<polygon fill="#fdb462" stroke="transparent" points="1227,-10 1227,-30 1247,-30 1247,-10 1227,-10"/>
<text text-anchor="start" x="1250.67" y="-15.4" font-family="sans-serif" font-size="14.00"> &#160;Providers</text>
<polygon fill="#fb8072" stroke="transparent" points="1323,-10 1323,-30 1343,-30 1343,-10 1323,-10"/>
<text text-anchor="start" x="1346.73" y="-15.4" font-family="sans-serif" font-size="14.00"> &#160;Exports</text>
<g id="clust1" class="cluster">
<title>cluster_AppModule</title>
<polygon fill="none" stroke="black" stroke-dasharray="1,5" points="8,-70 8,-268 2322,-268 2322,-70 8,-70"/>
</g>
<g id="clust2" class="cluster">
<title>cluster_AppModule_declarations</title>
<polygon fill="none" stroke="black" points="168,-78 168,-130 2314,-130 2314,-78 168,-78"/>
</g>
<g id="clust19" class="cluster">
<title>cluster_AppModule_bootstrap</title>
<polygon fill="none" stroke="black" points="1093,-208 1093,-260 1217,-260 1217,-208 1093,-208"/>
</g>
<g id="clust17" class="cluster">
<title>cluster_AppModule_imports</title>
<polygon fill="none" stroke="black" points="16,-78 16,-130 160,-130 160,-78 16,-78"/>
</g>
<!-- AlertasComponent -->
<g id="node1" class="node">
<title>AlertasComponent</title>
<polygon fill="#ffffb3" stroke="black" points="2305.75,-122 2184.25,-122 2184.25,-86 2305.75,-86 2305.75,-122"/>
<text text-anchor="middle" x="2245" y="-99.8" font-family="Times,serif" font-size="14.00">AlertasComponent</text>
</g>
<!-- AppModule -->
<g id="node15" class="node">
<title>AppModule</title>
<polygon fill="#8dd3c7" stroke="black" points="1196.66,-187 1193.66,-191 1172.66,-191 1169.66,-187 1113.34,-187 1113.34,-151 1196.66,-151 1196.66,-187"/>
<text text-anchor="middle" x="1155" y="-164.8" font-family="Times,serif" font-size="14.00">AppModule</text>
</g>
<!-- AlertasComponent&#45;&gt;AppModule -->
<g id="edge1" class="edge">
<title>AlertasComponent&#45;&gt;AppModule</title>
<path fill="none" stroke="black" d="M2245,-122.32C2245,-145.66 2245,-183 2245,-183 2245,-183 1206.73,-183 1206.73,-183"/>
<polygon fill="black" stroke="black" points="1206.73,-179.5 1196.73,-183 1206.73,-186.5 1206.73,-179.5"/>
</g>
<!-- AppComponent -->
<g id="node2" class="node">
<title>AppComponent</title>
<polygon fill="#ffffb3" stroke="black" points="2165.94,-122 2060.06,-122 2060.06,-86 2165.94,-86 2165.94,-122"/>
<text text-anchor="middle" x="2113" y="-99.8" font-family="Times,serif" font-size="14.00">AppComponent</text>
</g>
<!-- AppComponent&#45;&gt;AppModule -->
<g id="edge2" class="edge">
<title>AppComponent&#45;&gt;AppModule</title>
<path fill="none" stroke="black" d="M2113,-122.29C2113,-144.21 2113,-178 2113,-178 2113,-178 1206.78,-178 1206.78,-178"/>
<polygon fill="black" stroke="black" points="1206.78,-174.5 1196.78,-178 1206.78,-181.5 1206.78,-174.5"/>
</g>
<!-- CadastrarComponent -->
<g id="node3" class="node">
<title>CadastrarComponent</title>
<polygon fill="#ffffb3" stroke="black" points="2042.47,-122 1907.53,-122 1907.53,-86 2042.47,-86 2042.47,-122"/>
<text text-anchor="middle" x="1975" y="-99.8" font-family="Times,serif" font-size="14.00">CadastrarComponent</text>
</g>
<!-- CadastrarComponent&#45;&gt;AppModule -->
<g id="edge3" class="edge">
<title>CadastrarComponent&#45;&gt;AppModule</title>
<path fill="none" stroke="black" d="M1975,-122.03C1975,-142.77 1975,-174 1975,-174 1975,-174 1206.79,-174 1206.79,-174"/>
<polygon fill="black" stroke="black" points="1206.79,-170.5 1196.79,-174 1206.79,-177.5 1206.79,-170.5"/>
</g>
<!-- CategoriaComponent -->
<g id="node4" class="node">
<title>CategoriaComponent</title>
<polygon fill="#ffffb3" stroke="black" points="1889.75,-122 1754.25,-122 1754.25,-86 1889.75,-86 1889.75,-122"/>
<text text-anchor="middle" x="1822" y="-99.8" font-family="Times,serif" font-size="14.00">CategoriaComponent</text>
</g>
<!-- CategoriaComponent&#45;&gt;AppModule -->
<g id="edge4" class="edge">
<title>CategoriaComponent&#45;&gt;AppModule</title>
<path fill="none" stroke="black" d="M1822,-122.11C1822,-141.34 1822,-169 1822,-169 1822,-169 1206.72,-169 1206.72,-169"/>
<polygon fill="black" stroke="black" points="1206.72,-165.5 1196.72,-169 1206.72,-172.5 1206.72,-165.5"/>
</g>
<!-- CategoriaDeleteComponent -->
<g id="node5" class="node">
<title>CategoriaDeleteComponent</title>
<polygon fill="#ffffb3" stroke="black" points="1736.29,-122 1563.71,-122 1563.71,-86 1736.29,-86 1736.29,-122"/>
<text text-anchor="middle" x="1650" y="-99.8" font-family="Times,serif" font-size="14.00">CategoriaDeleteComponent</text>
</g>
<!-- CategoriaDeleteComponent&#45;&gt;AppModule -->
<g id="edge5" class="edge">
<title>CategoriaDeleteComponent&#45;&gt;AppModule</title>
<path fill="none" stroke="black" d="M1650,-122.3C1650,-140.27 1650,-165 1650,-165 1650,-165 1206.78,-165 1206.78,-165"/>
<polygon fill="black" stroke="black" points="1206.78,-161.5 1196.78,-165 1206.78,-168.5 1206.78,-161.5"/>
</g>
<!-- CategoriaEditComponent -->
<g id="node6" class="node">
<title>CategoriaEditComponent</title>
<polygon fill="#ffffb3" stroke="black" points="1545.59,-122 1386.41,-122 1386.41,-86 1545.59,-86 1545.59,-122"/>
<text text-anchor="middle" x="1466" y="-99.8" font-family="Times,serif" font-size="14.00">CategoriaEditComponent</text>
</g>
<!-- CategoriaEditComponent&#45;&gt;AppModule -->
<g id="edge6" class="edge">
<title>CategoriaEditComponent&#45;&gt;AppModule</title>
<path fill="none" stroke="black" d="M1466,-122.03C1466,-138.4 1466,-160 1466,-160 1466,-160 1206.94,-160 1206.94,-160"/>
<polygon fill="black" stroke="black" points="1206.94,-156.5 1196.94,-160 1206.94,-163.5 1206.94,-156.5"/>
</g>
<!-- EducativoComponent -->
<g id="node7" class="node">
<title>EducativoComponent</title>
<polygon fill="#ffffb3" stroke="black" points="1368.1,-122 1229.9,-122 1229.9,-86 1368.1,-86 1368.1,-122"/>
<text text-anchor="middle" x="1299" y="-99.8" font-family="Times,serif" font-size="14.00">EducativoComponent</text>
</g>
<!-- EducativoComponent&#45;&gt;AppModule -->
<g id="edge7" class="edge">
<title>EducativoComponent&#45;&gt;AppModule</title>
<path fill="none" stroke="black" d="M1299,-122.19C1299,-137.18 1299,-156 1299,-156 1299,-156 1207.04,-156 1207.04,-156"/>
<polygon fill="black" stroke="black" points="1207.04,-152.5 1197.04,-156 1207.04,-159.5 1207.04,-152.5"/>
</g>
<!-- LoginComponent -->
<g id="node8" class="node">
<title>LoginComponent</title>
<polygon fill="#ffffb3" stroke="black" points="1212.28,-122 1097.72,-122 1097.72,-86 1212.28,-86 1212.28,-122"/>
<text text-anchor="middle" x="1155" y="-99.8" font-family="Times,serif" font-size="14.00">LoginComponent</text>
</g>
<!-- LoginComponent&#45;&gt;AppModule -->
<g id="edge8" class="edge">
<title>LoginComponent&#45;&gt;AppModule</title>
<path fill="none" stroke="black" d="M1155,-122.11C1155,-122.11 1155,-140.99 1155,-140.99"/>
<polygon fill="black" stroke="black" points="1151.5,-140.99 1155,-150.99 1158.5,-140.99 1151.5,-140.99"/>
</g>
<!-- MenuComponent -->
<g id="node9" class="node">
<title>MenuComponent</title>
<polygon fill="#ffffb3" stroke="black" points="1079.99,-122 966.01,-122 966.01,-86 1079.99,-86 1079.99,-122"/>
<text text-anchor="middle" x="1023" y="-99.8" font-family="Times,serif" font-size="14.00">MenuComponent</text>
</g>
<!-- MenuComponent&#45;&gt;AppModule -->
<g id="edge9" class="edge">
<title>MenuComponent&#45;&gt;AppModule</title>
<path fill="none" stroke="black" d="M1023,-122.19C1023,-137.18 1023,-156 1023,-156 1023,-156 1103.23,-156 1103.23,-156"/>
<polygon fill="black" stroke="black" points="1103.23,-159.5 1113.23,-156 1103.23,-152.5 1103.23,-159.5"/>
</g>
<!-- PrincipalComponent -->
<g id="node10" class="node">
<title>PrincipalComponent</title>
<polygon fill="#ffffb3" stroke="black" points="947.88,-122 816.12,-122 816.12,-86 947.88,-86 947.88,-122"/>
<text text-anchor="middle" x="882" y="-99.8" font-family="Times,serif" font-size="14.00">PrincipalComponent</text>
</g>
<!-- PrincipalComponent&#45;&gt;AppModule -->
<g id="edge10" class="edge">
<title>PrincipalComponent&#45;&gt;AppModule</title>
<path fill="none" stroke="black" d="M882,-122.03C882,-138.4 882,-160 882,-160 882,-160 1103.24,-160 1103.24,-160"/>
<polygon fill="black" stroke="black" points="1103.24,-163.5 1113.24,-160 1103.24,-156.5 1103.24,-163.5"/>
</g>
<!-- ProdutoDeleteComponent -->
<g id="node11" class="node">
<title>ProdutoDeleteComponent</title>
<polygon fill="#ffffb3" stroke="black" points="798.2,-122 635.8,-122 635.8,-86 798.2,-86 798.2,-122"/>
<text text-anchor="middle" x="717" y="-99.8" font-family="Times,serif" font-size="14.00">ProdutoDeleteComponent</text>
</g>
<!-- ProdutoDeleteComponent&#45;&gt;AppModule -->
<g id="edge11" class="edge">
<title>ProdutoDeleteComponent&#45;&gt;AppModule</title>
<path fill="none" stroke="black" d="M717,-122.3C717,-140.27 717,-165 717,-165 717,-165 1103,-165 1103,-165"/>
<polygon fill="black" stroke="black" points="1103,-168.5 1113,-165 1103,-161.5 1103,-168.5"/>
</g>
<!-- ProdutoEditComponent -->
<g id="node12" class="node">
<title>ProdutoEditComponent</title>
<polygon fill="#ffffb3" stroke="black" points="617.5,-122 468.5,-122 468.5,-86 617.5,-86 617.5,-122"/>
<text text-anchor="middle" x="543" y="-99.8" font-family="Times,serif" font-size="14.00">ProdutoEditComponent</text>
</g>
<!-- ProdutoEditComponent&#45;&gt;AppModule -->
<g id="edge12" class="edge">
<title>ProdutoEditComponent&#45;&gt;AppModule</title>
<path fill="none" stroke="black" d="M543,-122.11C543,-141.34 543,-169 543,-169 543,-169 1102.93,-169 1102.93,-169"/>
<polygon fill="black" stroke="black" points="1102.93,-172.5 1112.93,-169 1102.93,-165.5 1102.93,-172.5"/>
</g>
<!-- RodapeComponent -->
<g id="node13" class="node">
<title>RodapeComponent</title>
<polygon fill="#ffffb3" stroke="black" points="450.1,-122 325.9,-122 325.9,-86 450.1,-86 450.1,-122"/>
<text text-anchor="middle" x="388" y="-99.8" font-family="Times,serif" font-size="14.00">RodapeComponent</text>
</g>
<!-- RodapeComponent&#45;&gt;AppModule -->
<g id="edge13" class="edge">
<title>RodapeComponent&#45;&gt;AppModule</title>
<path fill="none" stroke="black" d="M388,-122.03C388,-142.77 388,-174 388,-174 388,-174 1103.22,-174 1103.22,-174"/>
<polygon fill="black" stroke="black" points="1103.22,-177.5 1113.22,-174 1103.22,-170.5 1103.22,-177.5"/>
</g>
<!-- UserEditComponent -->
<g id="node14" class="node">
<title>UserEditComponent</title>
<polygon fill="#ffffb3" stroke="black" points="307.59,-122 176.41,-122 176.41,-86 307.59,-86 307.59,-122"/>
<text text-anchor="middle" x="242" y="-99.8" font-family="Times,serif" font-size="14.00">UserEditComponent</text>
</g>
<!-- UserEditComponent&#45;&gt;AppModule -->
<g id="edge14" class="edge">
<title>UserEditComponent&#45;&gt;AppModule</title>
<path fill="none" stroke="black" d="M242,-122.29C242,-144.21 242,-178 242,-178 242,-178 1103.1,-178 1103.1,-178"/>
<polygon fill="black" stroke="black" points="1103.1,-181.5 1113.1,-178 1103.1,-174.5 1103.1,-181.5"/>
</g>
<!-- AppComponent  -->
<g id="node17" class="node">
<title>AppComponent </title>
<polygon fill="#80b1d3" stroke="black" points="1209.44,-252 1100.56,-252 1100.56,-216 1209.44,-216 1209.44,-252"/>
<text text-anchor="middle" x="1155" y="-229.8" font-family="Times,serif" font-size="14.00">AppComponent </text>
</g>
<!-- AppModule&#45;&gt;AppComponent  -->
<g id="edge16" class="edge">
<title>AppModule&#45;&gt;AppComponent </title>
<path fill="none" stroke="black" stroke-dasharray="1,5" d="M1155,-187.11C1155,-187.11 1155,-205.99 1155,-205.99"/>
<polygon fill="black" stroke="black" points="1151.5,-205.99 1155,-215.99 1158.5,-205.99 1151.5,-205.99"/>
</g>
<!-- AppRoutingModule -->
<g id="node16" class="node">
<title>AppRoutingModule</title>
<polygon fill="#8dd3c7" stroke="black" points="152.27,-122 149.27,-126 128.27,-126 125.27,-122 23.73,-122 23.73,-86 152.27,-86 152.27,-122"/>
<text text-anchor="middle" x="88" y="-99.8" font-family="Times,serif" font-size="14.00">AppRoutingModule</text>
</g>
<!-- AppRoutingModule&#45;&gt;AppModule -->
<g id="edge15" class="edge">
<title>AppRoutingModule&#45;&gt;AppModule</title>
<path fill="none" stroke="black" d="M88,-122.32C88,-145.66 88,-183 88,-183 88,-183 1103.17,-183 1103.17,-183"/>
<polygon fill="black" stroke="black" points="1103.17,-186.5 1113.17,-183 1103.17,-179.5 1103.17,-186.5"/>
</g>
</g>
</svg>
